<?xml version="1.0" encoding="UTF-8"?>
<svg version="1.1" xmlns="http://www.w3.org/2000/svg" width="626" height="626">
<path d="M0 0 C8.08139986 6.58905998 13.69607712 14.07108233 14.8125 24.625 C14.89545473 26.08231289 14.96584682 27.54072761 15 29 C16.45599609 29.15275391 16.45599609 29.15275391 17.94140625 29.30859375 C22.49671941 29.96588486 26.6418629 31.44998392 30.9375 33.0625 C31.76942871 33.37413086 32.60135742 33.68576172 33.45849609 34.00683594 C51.86106856 41.0591087 69.07917897 51.07380262 84 64 C85.2065625 65.04220703 85.2065625 65.04220703 86.4375 66.10546875 C88.99694873 68.36498209 91.5052632 70.66929023 94 73 C94.86367188 73.79792969 95.72734375 74.59585938 96.6171875 75.41796875 C108.35680227 86.66417942 117.98303522 99.88876864 126 114 C126.98033203 115.68222656 126.98033203 115.68222656 127.98046875 117.3984375 C145.37460988 148.00017636 150.08667724 181.37305817 150.19923019 216.02356148 C150.21118652 219.38644553 150.23067961 222.7492105 150.25234985 226.11204529 C150.3134047 235.66523169 150.36781831 245.21840245 150.40136719 254.77172852 C150.42252153 260.64184623 150.45798086 266.5117394 150.50212479 272.38172722 C150.51611459 274.59524807 150.52496788 276.80880856 150.52817917 279.02237129 C150.57117944 305.82617712 152.81733674 336.7289329 170.4375 358.5 C172.84216747 361.52565303 174.08107515 363.95175095 174.296875 367.8515625 C173.59193114 372.95312987 171.1767174 377.93184706 167.43359375 381.48828125 C162.89940484 384.61334879 159.02526001 385.12566276 153.65054607 385.13142776 C153.00054662 385.1334804 152.35054718 385.13553303 151.68085077 385.13764787 C149.48771045 385.14333343 147.29463263 385.14185871 145.10148621 385.14044189 C143.51924912 385.14302464 141.93701268 385.14603754 140.35477716 385.1494453 C135.99493128 385.15752918 131.63510185 385.15930564 127.27524936 385.16004276 C122.57779743 385.1618909 117.88035409 385.16943699 113.1829071 385.17617798 C102.9061513 385.18977144 92.6293994 385.19578753 82.3526361 385.20018864 C75.93879281 385.20294921 69.52495104 385.20718621 63.11110878 385.21169281 C45.36151696 385.22388654 27.61192635 385.23418582 9.86233044 385.2375679 C8.15765846 385.23789725 8.15765846 385.23789725 6.41854866 385.23823325 C5.27934569 385.23845153 4.14014272 385.23866981 2.96641845 385.2388947 C0.65786946 385.23933817 -1.65067953 385.23978473 -3.95922852 385.24023438 C-5.67691707 385.24056652 -5.67691707 385.24056652 -7.42930641 385.24090537 C-25.99047788 385.24485461 -44.55161011 385.26231199 -63.11276642 385.2855939 C-82.15812094 385.30929082 -101.20345575 385.32176899 -120.24882525 385.32293582 C-130.94659892 385.32385349 -141.64432146 385.32962889 -152.34208107 385.34775543 C-161.45031657 385.363134 -170.55848515 385.36829015 -179.66673116 385.36001733 C-184.31553244 385.35610293 -188.96419889 385.35707887 -193.6129837 385.37107468 C-197.86737934 385.38376623 -202.12153816 385.38265805 -206.37593325 385.37048396 C-207.91631924 385.36851871 -209.45672172 385.37164345 -210.99708448 385.38032833 C-213.08935238 385.39137957 -215.18077838 385.3839626 -217.27302265 385.3719368 C-218.43561897 385.37253389 -219.59821528 385.37313097 -220.79604179 385.37374616 C-227.05692204 384.64340582 -230.87629024 381.58189973 -235 377 C-237.40488178 373.39267733 -238.03963319 370.26453112 -238 366 C-236.65355989 361.45576462 -234.5767102 358.39394694 -231.75 354.625 C-223.46947984 343.05327943 -219.47286079 328.85810829 -217 315 C-216.83264343 314.11646347 -216.66528687 313.23292694 -216.49285889 312.32261658 C-214.73937778 301.83928414 -214.70448064 291.47339782 -214.69503975 280.86890411 C-214.69132003 277.50003402 -214.6744389 274.131444 -214.65428162 270.76263428 C-214.59943134 261.19288416 -214.56843162 251.62309305 -214.54370117 242.05322266 C-214.52759169 236.1689743 -214.49713276 230.28492384 -214.45893669 224.40077972 C-214.4474849 222.18942152 -214.44135813 219.97802757 -214.44125557 217.76663971 C-214.43771434 161.69445266 -197.65285034 113.06773618 -158.125 72.8125 C-147.94964151 62.70557814 -136.343308 54.25985496 -124 47 C-123.31905273 46.5992627 -122.63810547 46.19852539 -121.93652344 45.78564453 C-114.30103785 41.37154101 -106.76183942 37.46477232 -98.33203125 34.7890625 C-96.63300659 34.24185547 -96.63300659 34.24185547 -94.8996582 33.68359375 C-92.6764469 32.99132487 -90.43882328 32.34337551 -88.18823242 31.74609375 C-85.05694875 30.77768097 -82.65443226 29.93041848 -80 28 C-78.59763968 24.94562077 -77.98724283 22.25456763 -77.52050781 18.93237305 C-76.66340602 14.10373816 -74.03941858 10.74137954 -71 7 C-70.52046875 6.38511719 -70.0409375 5.77023438 -69.546875 5.13671875 C-52.54404449 -14.227616 -19.99738467 -14.22951778 0 0 Z M-66 60 C-66.70688965 60.16628906 -67.4137793 60.33257812 -68.14208984 60.50390625 C-89.91313207 65.84164191 -110.06721587 76.32492042 -127 91 C-128.20849609 92.02673828 -128.20849609 92.02673828 -129.44140625 93.07421875 C-158.50408518 118.40741462 -175.74197515 153.64777384 -179 192 C-179.14234381 195.4891769 -179.16377746 198.97474835 -179.17358398 202.46655273 C-179.180271 203.47283218 -179.18695801 204.47911163 -179.19384766 205.5158844 C-179.20782524 207.68796555 -179.21974201 209.86006076 -179.22979546 212.03216362 C-179.24634767 215.48658698 -179.26959356 218.94090769 -179.29469299 222.39527893 C-179.3650537 232.21292907 -179.42526811 242.03062199 -179.47680664 251.84838867 C-179.50888292 257.86945211 -179.55022977 263.89039728 -179.59700203 269.9113636 C-179.61285494 272.18794662 -179.62525188 274.46455676 -179.63390923 276.74117851 C-179.70029973 293.95898454 -180.35922188 310.75696384 -184.4375 327.5625 C-184.64181641 328.45517578 -184.84613281 329.34785156 -185.05664062 330.26757812 C-186.2431542 335.32781828 -187.66672781 340.21653604 -189.43383789 345.10522461 C-190.14314719 347.14947879 -190.14314719 347.14947879 -190 350 C-85.72 350 18.56 350 126 350 C124.79438844 344.57474797 123.57774317 339.37497907 122.0625 334.0625 C120.48256514 328.31829238 119.2881053 322.56393495 118.3125 316.6875 C118.19334229 315.97150635 118.07418457 315.2555127 117.95141602 314.51782227 C116.52109892 305.50321002 115.85259833 296.59244806 115.84228516 287.4675293 C115.83720444 286.4659227 115.83212372 285.4643161 115.82688904 284.43235779 C115.81625335 282.27284787 115.80760699 280.1133274 115.80076981 277.95380211 C115.7888583 274.51527288 115.76937234 271.07686249 115.74765015 267.63838196 C115.68646639 257.86662869 115.63223997 248.09488833 115.59863281 238.32299805 C115.57746625 232.32665984 115.54199016 226.33054091 115.49787521 220.33432961 C115.48388603 218.07139511 115.47503227 215.80842185 115.47182083 213.5454464 C115.40034026 167.97370109 102.00688223 130.22723704 70.3125 96.9375 C43.20432107 70.59774189 6.45649078 56.52617594 -31.125 56.6875 C-31.80153625 56.68932281 -32.47807251 56.69114563 -33.17510986 56.69302368 C-44.34714773 56.7435052 -55.11275987 57.4173626 -66 60 Z " fill="#010101" transform="translate(345,95)"/>
<path d="M0 0 C31.02 0 62.04 0 94 0 C92.19580352 9.02098238 91.29470682 12.39704394 86 19 C85.51917969 19.61746094 85.03835938 20.23492188 84.54296875 20.87109375 C75.53393785 31.111739 61.63882236 34.56474572 48.68359375 36.3125 C36.18078515 37.07168382 22.04041362 31.74030594 12.50390625 23.96484375 C4.93831693 16.92101921 1.45828224 10.20797566 0 0 Z " fill="#020202" transform="translate(266,505)"/>
</svg>
